<svg xmlns="http://www.w3.org/2000/svg" style="display: none;">
  <symbol id="AIBox" viewBox="0 0 24 24">
    <path fill-rule="evenodd" clip-rule="evenodd" d="M8.7587 3H15.2413C16.0463 2.99999 16.7106 2.99998 17.2518 3.04419C17.8139 3.09012 18.3306 3.18868 18.816 3.43597C19.5686 3.81947 20.1805 4.43139 20.564 5.18404C20.8113 5.66937 20.9099 6.18608 20.9558 6.74817C21 7.28936 21 7.95372 21 8.75868V15.2413C21 16.0463 21 16.7106 20.9558 17.2518C20.9099 17.8139 20.8113 18.3306 20.564 18.816C20.1805 19.5686 19.5686 20.1805 18.816 20.564C18.3306 20.8113 17.8139 20.9099 17.2518 20.9558C16.7106 21 16.0463 21 15.2413 21H8.75868C7.95372 21 7.28936 21 6.74817 20.9558C6.18608 20.9099 5.66937 20.8113 5.18404 20.564C4.43139 20.1805 3.81947 19.5686 3.43597 18.816C3.18868 18.3306 3.09012 17.8139 3.04419 17.2518C2.99998 16.7106 2.99999 16.0463 3 15.2413V8.7587C2.99999 7.95373 2.99998 7.28937 3.04419 6.74817C3.09012 6.18608 3.18868 5.66937 3.43597 5.18404C3.81947 4.43139 4.43139 3.81947 5.18404 3.43597C5.66937 3.18868 6.18608 3.09012 6.74817 3.04419C7.28937 2.99998 7.95373 2.99999 8.7587 3ZM6.91104 5.03755C6.47262 5.07337 6.24842 5.1383 6.09202 5.21799C5.7157 5.40973 5.40973 5.7157 5.21799 6.09202C5.1383 6.24842 5.07337 6.47262 5.03755 6.91104C5.00078 7.36113 5 7.94342 5 8.8V15.2C5 16.0566 5.00078 16.6389 5.03755 17.089C5.07337 17.5274 5.1383 17.7516 5.21799 17.908C5.40973 18.2843 5.7157 18.5903 6.09202 18.782C6.24842 18.8617 6.47262 18.9266 6.91104 18.9624C7.36113 18.9992 7.94342 19 8.8 19H15.2C16.0566 19 16.6389 18.9992 17.089 18.9624C17.5274 18.9266 17.7516 18.8617 17.908 18.782C18.2843 18.5903 18.5903 18.2843 18.782 17.908C18.8617 17.7516 18.9266 17.5274 18.9624 17.089C18.9992 16.6389 19 16.0566 19 15.2V8.8C19 7.94342 18.9992 7.36113 18.9624 6.91104C18.9266 6.47262 18.8617 6.24842 18.782 6.09202C18.5903 5.7157 18.2843 5.40973 17.908 5.21799C17.7516 5.1383 17.5274 5.07337 17.089 5.03755C16.6389 5.00078 16.0566 5 15.2 5H8.8C7.94342 5 7.36113 5.00078 6.91104 5.03755ZM8.35859 7.77663C8.46273 7.32218 8.86709 7 9.33332 7H10.6666C11.1329 7 11.5372 7.32218 11.6414 7.77662L13.4747 15.7766C13.5981 16.315 13.2617 16.8514 12.7234 16.9747C12.1851 17.0981 11.6486 16.7617 11.5253 16.2234L11.2449 15H8.75509L8.47473 16.2234C8.35137 16.7617 7.81496 17.0981 7.27663 16.9747C6.7383 16.8514 6.4019 16.315 6.52527 15.7766L8.35859 7.77663ZM9.21342 13H10.7866L9.99999 9.56768L9.21342 13ZM16 7C16.5523 7 17 7.44772 17 8V16C17 16.5523 16.5523 17 16 17C15.4477 17 15 16.5523 15 16V8C15 7.44772 15.4477 7 16 7Z" fill="currentColor"/>
  </symbol>
  <symbol id="Ai" viewBox="0 0 24 24">
    <rect width="24" height="24" fill="white"/>
<path d="M9.99996 9.41328L10.9298 13H9.07007L9.99996 9.41328Z" fill="currentColor"/>
<path fill-rule="evenodd" clip-rule="evenodd" d="M15.2413 3H8.7587C7.95374 2.99999 7.28937 2.99998 6.74818 3.04419C6.18608 3.09012 5.66937 3.18868 5.18404 3.43598C4.43139 3.81947 3.81947 4.43139 3.43598 5.18404C3.18868 5.66937 3.09012 6.18608 3.04419 6.74818C2.99998 7.28937 2.99999 7.95372 3 8.75869V15.2413C2.99999 16.0463 2.99998 16.7106 3.04419 17.2518C3.09012 17.8139 3.18868 18.3306 3.43598 18.816C3.81947 19.5686 4.43139 20.1805 5.18404 20.564C5.66937 20.8113 6.18608 20.9099 6.74818 20.9558C7.28937 21 7.95372 21 8.75868 21H15.2413C16.0463 21 16.7106 21 17.2518 20.9558C17.8139 20.9099 18.3306 20.8113 18.816 20.564C19.5686 20.1805 20.1805 19.5686 20.564 18.816C20.8113 18.3306 20.9099 17.8139 20.9558 17.2518C21 16.7106 21 16.0463 21 15.2413V8.75868C21 7.95372 21 7.28937 20.9558 6.74818C20.9099 6.18608 20.8113 5.66937 20.564 5.18404C20.1805 4.43139 19.5686 3.81947 18.816 3.43598C18.3306 3.18868 17.8139 3.09012 17.2518 3.04419C16.7106 2.99998 16.0463 2.99999 15.2413 3ZM8.5595 7H11.4404L14.0329 17H11.9668L11.4483 15H8.55156L8.03304 17H5.96692L8.5595 7ZM17 17V7H15V17H17Z" fill="currentColor"/>
  </symbol>
  <symbol id="ChartLight" viewBox="0 0 24 24">
    <path d="M17 9L13.9558 13.5662C13.5299 14.2051 12.5728 14.1455 12.2294 13.4587L11.7706 12.5413C11.4272 11.8545 10.4701 11.7949 10.0442 12.4338L7 17" stroke="currentColor" stroke-linecap="round" stroke-linejoin="round"/>
<rect x="3" y="3" width="18" height="18" rx="2" stroke="currentColor"/>
  </symbol>
  <symbol id="Chemistry" viewBox="0 0 24 24">
    <path d="M11 7L13 10L11 13H8L6 10L8 7H11Z" stroke="currentColor" stroke-width="2" stroke-linecap="round" stroke-linejoin="round"/>
<path d="M16 4L18 7L16 10H13L11 7L13 4H16Z" stroke="currentColor" stroke-width="2" stroke-linecap="round" stroke-linejoin="round"/>
<path d="M16 16L18 19" stroke="currentColor" stroke-width="2" stroke-linecap="round" stroke-linejoin="round"/>
<path d="M5 4L8 7" stroke="currentColor" stroke-width="2" stroke-linecap="round" stroke-linejoin="round"/>
<path d="M8 13L6 15" stroke="currentColor" stroke-width="2" stroke-linecap="round" stroke-linejoin="round"/>
<path d="M13 16L11 18" stroke="currentColor" stroke-width="2" stroke-linecap="round" stroke-linejoin="round"/>
<path d="M6 10H4" stroke="currentColor" stroke-width="2" stroke-linecap="round" stroke-linejoin="round"/>
<path d="M18 13H21" stroke="currentColor" stroke-width="2" stroke-linecap="round" stroke-linejoin="round"/>
<path d="M16 10L18 13L16 16H13L11 13L13 10H16Z" stroke="currentColor" stroke-width="2" stroke-linecap="round" stroke-linejoin="round"/>
<circle cx="9" cy="20" r="1" fill="currentColor"/>
<circle cx="4" cy="17" r="1" fill="currentColor"/>
<circle cx="21" cy="7" r="1" fill="currentColor"/>
  </symbol>
  <symbol id="CloseRound" viewBox="0 0 24 24">
    <path stroke="currentColor" stroke-linecap="round" stroke-linejoin="round" stroke-width="2" d="M18 6 6 18M6 6l12 12"/>
  </symbol>
  <symbol id="Code" viewBox="0 0 24 24">
    <path d="M16 7L20 12L16 17" stroke="currentColor" stroke-width="2"/>
<path d="M8 7L4 12L8 17" stroke="currentColor" stroke-width="2"/>
  </symbol>
  <symbol id="Github" viewBox="0 0 24 24">
    <path fill-rule="evenodd" clip-rule="evenodd" d="M12.0083 2.16663C6.47396 2.16663 2 6.67357 2 12.2493C2 16.7062 4.86662 20.4789 8.84338 21.8142C9.34058 21.9146 9.5227 21.5973 9.5227 21.3303C9.5227 21.0966 9.50631 20.2954 9.50631 19.4606C6.72225 20.0616 6.14249 18.2587 6.14249 18.2587C5.69508 17.0901 5.03215 16.7898 5.03215 16.7898C4.12092 16.1721 5.09852 16.1721 5.09852 16.1721C6.1093 16.2389 6.63969 17.2071 6.63969 17.2071C7.53432 18.7427 8.97592 18.3088 9.55588 18.0417C9.63865 17.3907 9.90394 16.94 10.1856 16.6896C7.96514 16.4559 5.62891 15.5879 5.62891 11.715C5.62891 10.6132 6.02634 9.71186 6.65608 9.01082C6.55672 8.76048 6.20866 7.72532 6.75564 6.33985C6.75564 6.33985 7.60069 6.07271 9.5061 7.3748C10.3219 7.1541 11.1632 7.04183 12.0083 7.04088C12.8533 7.04088 13.7148 7.15786 14.5102 7.3748C16.4159 6.07271 17.2609 6.33985 17.2609 6.33985C17.8079 7.72532 17.4596 8.76048 17.3603 9.01082C18.0066 9.71186 18.3876 10.6132 18.3876 11.715C18.3876 15.5879 16.0514 16.4391 13.8143 16.6896C14.179 17.0067 14.4936 17.6076 14.4936 18.5592C14.4936 19.9113 14.4773 20.9964 14.4773 21.3301C14.4773 21.5973 14.6596 21.9146 15.1566 21.8144C19.1333 20.4787 22 16.7062 22 12.2493C22.0163 6.67357 17.526 2.16663 12.0083 2.16663Z" fill="currentColor"/>
  </symbol>
  <symbol id="Glass" viewBox="0 0 24 24">
    <path d="M2 11H8C9.10457 11 10 11.8954 10 13V15C10 16.6569 8.65685 18 7 18H4C2.89543 18 2 17.1046 2 16V11Z" stroke="currentColor" stroke-width="2" stroke-linecap="round" stroke-linejoin="round"/>
<path d="M14 13C14 11.8954 14.8954 11 16 11H22V16C22 17.1046 21.1046 18 20 18H17C15.3431 18 14 16.6569 14 15V13Z" stroke="currentColor" stroke-width="2" stroke-linecap="round" stroke-linejoin="round"/>
<path d="M2 11L4 7H6M22 11L20 7H18" stroke="currentColor" stroke-width="2" stroke-linecap="round" stroke-linejoin="round"/>
<path d="M10 12H14" stroke="currentColor" stroke-width="2" stroke-linecap="round" stroke-linejoin="round"/>
  </symbol>
  <symbol id="HeartFilled" viewBox="0 0 24 24">
    <path fill="currentColor" stroke="currentColor" stroke-width="2" d="m4.45 13.908 6.953 6.531c.24.225.36.338.5.366a.5.5 0 0 0 .193 0c.142-.028.261-.14.5-.366l6.953-6.53a5.203 5.203 0 0 0 .549-6.983l-.31-.399c-1.968-2.536-5.918-2.111-7.301.787a.54.54 0 0 1-.974 0C10.13 4.416 6.18 3.99 4.212 6.527l-.31.4a5.203 5.203 0 0 0 .549 6.981Z"/>
  </symbol>
  <symbol id="Lamp" viewBox="0 0 24 24">
    <path d="M13.7891 20.1055L14.2363 20.9999L13.7891 20.1055ZM10.2109 20.1055L9.76372 20.9999L10.2109 20.1055ZM14.0025 19.7642L13.0027 19.7432L14.0025 19.7642ZM8.91546 15.2318L9.70564 14.6189L8.91546 15.2318ZM15.5974 14.8019L16.1975 15.6018L15.5974 14.8019ZM14.8583 15.6835L15.7823 16.0657L14.8583 15.6835ZM15.0836 15.2318L14.2934 14.619L15.0836 15.2318ZM12 4V5C14.7614 5 17 7.23858 17 10H18H19C19 6.13401 15.866 3 12 3V4ZM18 10H17C17 11.636 16.2152 13.0882 14.9972 14.002L15.5974 14.8019L16.1975 15.6018C17.8971 14.3266 19 12.2922 19 10H18ZM14.8583 15.6835L13.9342 15.3012C13.3524 16.7076 13.0347 18.2135 13.0027 19.7432L14.0025 19.7642L15.0022 19.7851C15.029 18.5047 15.295 17.2438 15.7823 16.0657L14.8583 15.6835ZM13.7891 20.1055L13.3418 19.211C12.4973 19.6333 11.5027 19.6333 10.6582 19.211L10.2109 20.1055L9.76372 20.9999C11.1714 21.7037 12.8286 21.7037 14.2363 20.9999L13.7891 20.1055ZM9.99753 19.7642L10.9973 19.7432C10.9652 18.213 10.6467 16.7072 10.0647 15.3009L9.14073 15.6833L8.21674 16.0657C8.70444 17.2441 8.9709 18.5049 8.99775 19.7851L9.99753 19.7642ZM8.40185 14.8019L9.00212 14.0021C7.78454 13.0883 7 11.6359 7 10H6H5C5 12.2918 6.10235 14.3264 7.80158 15.6017L8.40185 14.8019ZM6 10H7C7 7.23858 9.23858 5 12 5V4V3C8.13401 3 5 6.13401 5 10H6ZM10.2109 20.1055L10.6582 19.211C10.8714 19.3177 10.9928 19.5285 10.9973 19.7432L9.99753 19.7642L8.99775 19.7851C9.00831 20.2889 9.2919 20.764 9.76372 20.9999L10.2109 20.1055ZM14.0025 19.7642L13.0027 19.7432C13.0072 19.5285 13.1286 19.3177 13.3418 19.211L13.7891 20.1055L14.2363 20.9999C14.7081 20.764 14.9917 20.2889 15.0022 19.7851L14.0025 19.7642ZM9.14073 15.6833L10.0647 15.3009C9.98638 15.1116 9.88802 14.8541 9.70564 14.6189L8.91546 15.2318L8.12527 15.8447C8.11175 15.8272 8.10925 15.8178 8.12234 15.845C8.1302 15.8613 8.14105 15.8853 8.15736 15.9235C8.17381 15.962 8.19231 16.0067 8.21674 16.0657L9.14073 15.6833ZM8.40185 14.8019L7.80158 15.6017C7.9522 15.7148 8.04021 15.7811 8.10238 15.8319C8.16487 15.8831 8.15305 15.8805 8.12527 15.8447L8.91546 15.2318L9.70564 14.6189C9.5188 14.378 9.22858 14.1721 9.00212 14.0021L8.40185 14.8019ZM15.5974 14.8019L14.9972 14.002C14.7707 14.172 14.4803 14.3779 14.2934 14.619L15.0836 15.2318L15.8738 15.8447C15.846 15.8805 15.8341 15.8831 15.8966 15.832C15.9588 15.7811 16.0468 15.7148 16.1975 15.6018L15.5974 14.8019ZM14.8583 15.6835L15.7823 16.0657C15.8067 16.0067 15.8252 15.962 15.8417 15.9235C15.858 15.8853 15.8688 15.8614 15.8767 15.8451C15.8898 15.8179 15.8873 15.8273 15.8738 15.8447L15.0836 15.2318L14.2934 14.619C14.1109 14.8543 14.0125 15.1118 13.9342 15.3012L14.8583 15.6835Z" fill="currentColor"/>
<path d="M14.992 16C13.181 17.2106 10.8189 17.2106 9.00781 16" stroke="currentColor" stroke-width="2"/>
  </symbol>
  <symbol id="LaptopDuotone" viewBox="0 0 24 24">
    <path d="M3 6C3 4.89543 3.89543 4 5 4H19C20.1046 4 21 4.89543 21 6V15H3V6Z" fill="currentColor" fill-opacity="0.24"/>
<path d="M1 17C1 16.4477 1.44772 16 2 16H22C22.5523 16 23 16.4477 23 17C23 18.1046 22.1046 19 21 19H3C1.89543 19 1 18.1046 1 17Z" fill="currentColor"/>
  </symbol>
  <symbol id="LeaderDuotone" viewBox="0 0 24 24">
    <circle cx="12" cy="8" r="2.5" stroke="currentColor" stroke-linecap="round"/>
<path d="M13.7679 6.5C13.9657 6.15743 14.2607 5.88121 14.6154 5.70625C14.9702 5.5313 15.3689 5.46548 15.7611 5.51711C16.1532 5.56874 16.5213 5.73551 16.8187 5.99632C17.1161 6.25713 17.3295 6.60028 17.4319 6.98236C17.5342 7.36445 17.521 7.76831 17.3939 8.14288C17.2667 8.51745 17.0313 8.8459 16.7175 9.08671C16.4037 9.32751 16.0255 9.46985 15.6308 9.49572C15.2361 9.52159 14.8426 9.42983 14.5 9.23205" stroke="currentColor" stroke-opacity="0.24"/>
<path d="M10.2321 6.5C10.0343 6.15743 9.73935 5.88121 9.38458 5.70625C9.02981 5.5313 8.63113 5.46548 8.23895 5.51711C7.84677 5.56874 7.47871 5.73551 7.18131 5.99632C6.88391 6.25713 6.67053 6.60028 6.56815 6.98236C6.46577 7.36445 6.47899 7.76831 6.60614 8.14288C6.73329 8.51745 6.96866 8.8459 7.28248 9.08671C7.5963 9.32751 7.97448 9.46985 8.36919 9.49572C8.76391 9.52159 9.15743 9.42983 9.5 9.23205" stroke="currentColor" stroke-opacity="0.24"/>
<path d="M15.5 11.5L15.5 11H15.5V11.5ZM19.2959 15.416L19.7809 15.2946L19.7809 15.2945L19.2959 15.416ZM17.1797 16.5L16.6994 16.639L16.8039 17H17.1797V16.5ZM13.0869 12.5859L12.7177 12.2488L12.0972 12.9283L13.0049 13.0792L13.0869 12.5859ZM15.5 11.5L15.5 12C16.5275 12 17.2492 12.5026 17.7778 13.2068C18.3171 13.9251 18.6338 14.8303 18.8109 15.5375L19.2959 15.416L19.7809 15.2945C19.5898 14.5313 19.2323 13.4785 18.5776 12.6065C17.9123 11.7203 16.9201 11.0001 15.5 11L15.5 11.5ZM19.2959 15.416L18.8109 15.5375C18.8647 15.7526 18.7067 16 18.3945 16V16.5V17C19.2656 17 20.0145 16.2272 19.7809 15.2946L19.2959 15.416ZM18.3945 16.5V16H17.1797V16.5V17H18.3945V16.5ZM17.1797 16.5L17.66 16.361C17.1889 14.7329 16.0187 12.5663 13.1689 12.0927L13.0869 12.5859L13.0049 13.0792C15.3051 13.4614 16.2772 15.1799 16.6994 16.639L17.1797 16.5ZM13.0869 12.5859L13.4562 12.9231C13.9565 12.3751 14.6106 12 15.5 12V11.5V11C14.2828 11 13.3734 11.5306 12.7177 12.2488L13.0869 12.5859Z" fill="currentColor" fill-opacity="0.24"/>
<path d="M8.50049 11.5L8.50055 11H8.50049V11.5ZM10.9116 12.5859L10.9937 13.0792L11.9014 12.9281L11.2808 12.2487L10.9116 12.5859ZM6.8208 16.5V17H7.19662L7.30109 16.639L6.8208 16.5ZM5.60498 16.5L5.60497 17H5.60498V16.5ZM4.70361 15.416L4.21859 15.2945L4.21859 15.2946L4.70361 15.416ZM8.50049 11.5L8.50042 12C9.3889 12.0001 10.042 12.3752 10.5424 12.9231L10.9116 12.5859L11.2808 12.2487C10.6255 11.5313 9.71746 11.0002 8.50055 11L8.50049 11.5ZM10.9116 12.5859L10.8295 12.0927C7.98065 12.5668 6.81153 14.7334 6.34051 16.361L6.8208 16.5L7.30109 16.639C7.7233 15.18 8.69463 13.4617 10.9937 13.0792L10.9116 12.5859ZM6.8208 16.5V16H5.60498V16.5V17H6.8208V16.5ZM5.60498 16.5L5.60499 16C5.29278 16 5.13477 15.7526 5.18864 15.5375L4.70361 15.416L4.21859 15.2946C3.98502 16.2272 4.73396 17 5.60497 17L5.60498 16.5ZM4.70361 15.416L5.18863 15.5375C5.36573 14.8304 5.68258 13.9252 6.22204 13.2069C6.75094 12.5026 7.47281 12 8.50049 12V11.5V11C7.0804 11 6.08796 11.7202 5.42244 12.6063C4.76748 13.4784 4.40977 14.5312 4.21859 15.2945L4.70361 15.416Z" fill="currentColor" fill-opacity="0.24"/>
<path d="M12 12.5C16.0802 12.5 17.1335 15.8022 17.4054 17.507C17.4924 18.0524 17.0523 18.5 16.5 18.5H7.5C6.94771 18.5 6.50763 18.0524 6.59461 17.507C6.86649 15.8022 7.91976 12.5 12 12.5Z" stroke="currentColor" stroke-linecap="round"/>
  </symbol>
  <symbol id="Linkedin" viewBox="0 0 24 24">
    <path d="M21 4.32353V19.6765C21 20.0275 20.8606 20.3641 20.6123 20.6123C20.3641 20.8606 20.0275 21 19.6765 21H4.32353C3.97251 21 3.63586 20.8606 3.38765 20.6123C3.13944 20.3641 3 20.0275 3 19.6765V4.32353C3 3.97251 3.13944 3.63586 3.38765 3.38765C3.63586 3.13944 3.97251 3 4.32353 3H19.6765C20.0275 3 20.3641 3.13944 20.6123 3.38765C20.8606 3.63586 21 3.97251 21 4.32353ZM8.29412 9.88235H5.64706V18.3529H8.29412V9.88235ZM8.53235 6.97059C8.53375 6.77036 8.49569 6.57182 8.42035 6.3863C8.34502 6.20078 8.23387 6.03191 8.09328 5.88935C7.95268 5.74678 7.78537 5.6333 7.60091 5.5554C7.41646 5.47749 7.21846 5.43668 7.01824 5.43529H6.97059C6.5634 5.43529 6.17289 5.59705 5.88497 5.88497C5.59705 6.17289 5.43529 6.5634 5.43529 6.97059C5.43529 7.37777 5.59705 7.76828 5.88497 8.05621C6.17289 8.34413 6.5634 8.50588 6.97059 8.50588C7.17083 8.51081 7.37008 8.47623 7.55696 8.40413C7.74383 8.33202 7.91467 8.2238 8.0597 8.08565C8.20474 7.94749 8.32113 7.78212 8.40223 7.59897C8.48333 7.41582 8.52755 7.21848 8.53235 7.01824V6.97059ZM18.3529 13.2071C18.3529 10.6606 16.7329 9.67059 15.1235 9.67059C14.5966 9.6442 14.0719 9.75644 13.6019 9.9961C13.1318 10.2358 12.7328 10.5945 12.4447 11.0365H12.3706V9.88235H9.88235V18.3529H12.5294V13.8476C12.4911 13.3862 12.6365 12.9283 12.9339 12.5735C13.2313 12.2186 13.6567 11.9954 14.1176 11.9524H14.2182C15.06 11.9524 15.6847 12.4818 15.6847 13.8159V18.3529H18.3318L18.3529 13.2071Z" fill="currentColor"/>
  </symbol>
  <symbol id="LoadCircle" viewBox="0 0 24 24">
    <path stroke="currentColor" stroke-width="2" d="M5.239 14.812a7 7 0 0 0 13.523 0"/><path fill="currentColor" d="m12 13-.625.78.625.5.625-.5zm1-9a1 1 0 1 0-2 0h2M7 9l-.625.78 5 4L12 13l.625-.78-5-4zm5 4 .625.78 5-4L17 9l-.625-.78-5 4zm0 0h1V4h-2v9z"/>
  </symbol>
  <symbol id="Menu" viewBox="0 0 24 24">
    <path stroke="currentColor" stroke-linecap="round" stroke-width="2" d="M5 7h14M5 12h14M5 17h14"/>
  </symbol>
  <symbol id="Message" viewBox="0 0 24 24">
    <rect x="4" y="6" width="16" height="12" rx="2" stroke="currentColor" stroke-width="2"/>
<path d="M4 9L11.1056 12.5528C11.6686 12.8343 12.3314 12.8343 12.8944 12.5528L20 9" stroke="currentColor" stroke-width="2"/>
  </symbol>
  <symbol id="Structure" viewBox="0 0 24 24">
    <rect x="4" y="4" width="16" height="5" rx="1" stroke="currentColor" stroke-width="2"/>
<path d="M4 17C4 16.0572 4 15.5858 4.29289 15.2929C4.58579 15 5.05719 15 6 15H9V18C9 18.9428 9 19.4142 8.70711 19.7071C8.41421 20 7.94281 20 7 20H6C5.05719 20 4.58579 20 4.29289 19.7071C4 19.4142 4 18.9428 4 18V17Z" stroke="currentColor" stroke-width="2"/>
<path d="M15 15H18C18.9428 15 19.4142 15 19.7071 15.2929C20 15.5858 20 16.0572 20 17V18C20 18.9428 20 19.4142 19.7071 19.7071C19.4142 20 18.9428 20 18 20H17C16.0572 20 15.5858 20 15.2929 19.7071C15 19.4142 15 18.9428 15 18V15Z" stroke="currentColor" stroke-width="2"/>
  </symbol>
  <symbol id="Whatsapp" viewBox="0 0 24 24">
    <path d="M12.0377 3.29028C7.09761 3.29028 3.07723 7.16261 3.07548 11.9216C3.07432 13.4434 3.48774 14.9287 4.27161 16.2369L3 20.7096L7.75142 19.5094C9.07309 20.2008 10.5427 20.5614 12.0343 20.5604H12.0377C16.9779 20.5604 20.9983 16.6875 21 11.9285C21.0012 9.62338 20.0698 7.45351 18.3772 5.82248C16.6852 4.19086 14.4352 3.29086 12.0377 3.29028ZM12.0377 19.1024H12.0348C10.6982 19.1024 9.3871 18.7563 8.24323 18.1025L7.97032 17.9469L5.15187 18.6588L5.90439 16.0111L5.72729 15.7399C4.98343 14.6054 4.58745 13.2782 4.58806 11.9216C4.58981 7.96564 7.932 4.74828 12.0406 4.74828C14.0299 4.74886 15.9002 5.49615 17.3071 6.85196C18.714 8.20777 19.488 10.0107 19.4868 11.928C19.4851 15.8839 16.1435 19.1024 12.0372 19.1024H12.0377ZM16.1237 13.7285C15.8996 13.6211 14.7987 13.0991 14.5932 13.0265C14.3882 12.9551 14.239 12.918 14.0897 13.134C13.9411 13.35 13.5114 13.836 13.3814 13.9794C13.2501 14.1234 13.1195 14.1408 12.8954 14.0334C12.6712 13.9254 11.9495 13.6978 11.0948 12.9627C10.4288 12.3913 9.97935 11.6853 9.84871 11.4687C9.71806 11.2533 9.83477 11.1365 9.94684 11.0291C10.0473 10.9333 10.171 10.7777 10.2825 10.6517C10.3939 10.5257 10.4311 10.4357 10.5066 10.2917C10.5809 10.1483 10.5437 10.0217 10.4874 9.91428C10.4311 9.8057 9.984 8.74428 9.79645 8.31286C9.61529 7.89248 9.43064 7.9488 9.29303 7.94183C9.16239 7.93603 9.01374 7.93428 8.86335 7.93428C8.71529 7.93428 8.472 7.98828 8.26645 8.20428C8.06148 8.42028 7.48258 8.9417 7.48258 10.0031C7.48258 11.0651 8.28503 12.0905 8.3971 12.2345C8.50916 12.378 9.97645 14.5571 12.223 15.492C12.7572 15.7132 13.1741 15.8462 13.4998 15.946C14.0363 16.1103 14.5246 16.0865 14.9102 16.0314C15.3399 15.9693 16.2352 15.51 16.421 15.0065C16.608 14.5031 16.608 14.0711 16.5523 13.9811C16.4977 13.8911 16.3479 13.8371 16.1237 13.7285Z" fill="currentColor"/>
  </symbol>
</svg>